<?xml version="1.0" encoding="UTF-8" standalone="no"?>
<!-- Created with Inkscape (http://www.inkscape.org/) -->

<svg
   width="50.749798mm"
   height="52.963055mm"
   viewBox="0 0 50.749798 52.963055"
   version="1.1"
   id="svg17595"
   sodipodi:docname="MC.svg"
   inkscape:export-filename="/home/boris/Bureau/Projets/AppElh/Design/fg-clean-size.png"
   inkscape:export-xdpi="120.41482"
   inkscape:export-ydpi="120.41482"
   inkscape:version="1.1.2 (0a00cf5339, 2022-02-04)"
   xmlns:inkscape="http://www.inkscape.org/namespaces/inkscape"
   xmlns:sodipodi="http://sodipodi.sourceforge.net/DTD/sodipodi-0.dtd"
   xmlns="http://www.w3.org/2000/svg"
   xmlns:svg="http://www.w3.org/2000/svg">
  <sodipodi:namedview
     id="namedview17"
     pagecolor="#ffffff"
     bordercolor="#000000"
     borderopacity="0.25"
     inkscape:pageshadow="2"
     inkscape:pageopacity="0.0"
     inkscape:pagecheckerboard="0"
     inkscape:document-units="mm"
     showgrid="false"
     fit-margin-top="0"
     fit-margin-left="0"
     fit-margin-right="0"
     fit-margin-bottom="0"
     inkscape:zoom="0.34484028"
     inkscape:cx="-590.12828"
     inkscape:cy="479.93233"
     inkscape:window-width="1920"
     inkscape:window-height="1000"
     inkscape:window-x="3840"
     inkscape:window-y="0"
     inkscape:window-maximized="1"
     inkscape:current-layer="svg17595" />
  <defs
     id="defs17592" />
  <g
     id="layer1"
     transform="matrix(0.63660892,0,0,0.61454349,-21.986622,-5.4171462)">
    <g
       id="g1152"
       transform="matrix(0.26458333,0,0,0.26458333,-302.35686,-60.241338)">
      <path
         d="m 1480.8,261 v 241.6 h -26 V 269.2 c -11.4,4.8 -21.2,12.4 -29.3,22.9 -8.1,10.5 -14.9,22.6 -20.4,36.4 -5.5,13.8 -9.8,28.7 -13,44.7 -3.2,16 -5.6,31.8 -7.4,47.6 -1.8,15.8 -2.8,30.7 -3.3,44.8 -0.5,14.1 -0.7,26.5 -0.7,37 h -3.4 l -92.3,-212.9 -9.6,-22.6 v 235.4 h -2.1 V 261 h 28.4 l 78,180.3 c 1.1,-13 2.7,-26.5 4.8,-40.5 2.1,-14 4.8,-27.7 8.2,-41.1 3.4,-13.3 7.6,-26 12.7,-38 5,-12 11.1,-22.5 18.3,-31.5 7.2,-9 15.5,-16.1 24.8,-21.4 9.5,-5.2 20.2,-7.8 32.3,-7.8 z"
         id="path1130" />
      <path
         d="m 1471.9,390.1 c -12.1,3.4 -22,9.3 -29.8,17.7 -7.8,8.4 -13.6,18.1 -17.5,29.1 -3.9,11 -6,22.6 -6.2,34.8 -0.2,12.2 0.9,23.7 3.5,34.5 3,10.8 7.7,21.4 14,31.8 6.3,10.4 14,19.4 22.8,27 8.9,7.6 18.8,13 29.7,16.3 10.9,3.3 22.4,3.4 34.5,0.1 7.9,-2.1 14.9,-5.3 20.9,-9.8 6,-4.4 11.1,-9.7 15.3,-15.6 4.3,-6 7.7,-12.5 10.2,-19.6 2.6,-7.1 4.3,-14.5 5.3,-22.3 v 36 c -6.2,7.9 -13.8,14.7 -22.6,20.3 -8.8,5.6 -18.3,9.7 -28.5,12.3 -13.6,4 -27,5 -40,3.1 -13.1,-1.9 -25.1,-6.1 -36.2,-12.5 -11.1,-6.4 -20.8,-14.9 -29.1,-25.5 -8.3,-10.6 -14.4,-22.6 -18.2,-36 -3.4,-13.4 -4.2,-26.8 -2.3,-40 1.9,-13.2 6.1,-25.5 12.5,-36.8 6.4,-11.3 14.9,-21 25.3,-29.2 10.4,-8.2 22.3,-14.1 35.8,-17.7 7.9,-2.1 15.3,-3.4 22.1,-3.8 6.8,-0.5 13.1,-0.4 19,0.3 5.9,0.7 11.2,1.8 16,3.4 4.8,1.6 9.1,3.4 12.9,5.3 9.1,4.7 16.6,10.8 22.7,18.2 V 441 c -6.2,-12.5 -13.9,-23.1 -23,-31.8 -3.8,-3.6 -8.1,-7 -12.9,-10.4 -4.8,-3.3 -10.1,-6 -15.9,-7.9 -5.8,-2 -12,-3.1 -18.7,-3.4 -6.6,-0.4 -13.8,0.5 -21.6,2.6 z"
         id="path1132" />
    </g>
  </g>
</svg>
