<svg xmlns="http://www.w3.org/2000/svg" viewBox="0 0 24 24" height="24" width="24"><defs></defs><title>religion-islam-hand</title><path d="M1 14.528h3s0.5 0 0.5 0.5v7s0 0.5 -0.5 0.5H1s-0.5 0 -0.5 -0.5v-7s0 -0.5 0.5 -0.5" fill="none" stroke="#000000" stroke-linecap="round" stroke-linejoin="round" stroke-width="1"></path><path d="M4.5 21.028c10.528 3.511 7.3 3.611 18.723 -2.164a0.511 0.511 0 0 0 0.084 -0.854 2.485 2.485 0 0 0 -2.417 -0.482l-5.2 1.726" fill="none" stroke="#000000" stroke-linecap="round" stroke-linejoin="round" stroke-width="1"></path><path d="M9.5 19.528H15a1 1 0 0 0 0 -2h-3a6.59 6.59 0 0 0 -4.5 -2h-3" fill="none" stroke="#000000" stroke-linecap="round" stroke-linejoin="round" stroke-width="1"></path><path d="M14.6 4.552a0.5 0.5 0 0 0 -0.9 0L13.133 5.7l-1.268 0.184a0.5 0.5 0 0 0 -0.277 0.853l0.918 0.9 -0.217 1.263a0.5 0.5 0 0 0 0.725 0.528l1.135 -0.6 1.134 0.6a0.5 0.5 0 0 0 0.726 -0.527l-0.217 -1.263 0.918 -0.9a0.5 0.5 0 0 0 -0.277 -0.853L15.164 5.7Z" fill="none" stroke="#000000" stroke-linecap="round" stroke-linejoin="round" stroke-width="1"></path><path d="M14.645 13.025a0.349 0.349 0 0 1 0.128 -0.673 5.348 5.348 0 1 0 -0.5 -10.674 0.249 0.249 0 0 1 -0.133 -0.472 6.475 6.475 0 1 1 0.5 11.819Z" fill="none" stroke="#000000" stroke-linecap="round" stroke-linejoin="round" stroke-width="1"></path></svg>