<svg xmlns="http://www.w3.org/2000/svg" viewBox="0 0 24 24" id="Avatar-Muslim-Dad-Son-3--Streamline-Ultimate.svg" height="24" width="24"><desc>Avatar Muslim Dad Son 3 Streamline Icon: https://streamlinehq.com</desc><defs></defs><path d="M19.824 15.322v6.645h1.887a1.022 1.022 0 0 0 1.022 -1.023V15.6a7.043 7.043 0 0 0 -3.335 -6" fill="none" stroke="#000000" stroke-linecap="round" stroke-linejoin="round" stroke-width="1"></path><path d="m19.824 21.967 0 1.533" fill="none" stroke="#000000" stroke-linecap="round" stroke-linejoin="round" stroke-width="1"></path><path d="m16.089 10.722 0 3.067" fill="none" stroke="#000000" stroke-linecap="round" stroke-linejoin="round" stroke-width="1"></path><path d="M12 5.611c0 1.533 -0.511 5.111 4.089 5.111s4.089 -3.578 4.089 -5.111c-1.022 0 -2.556 2.811 -2.556 2.811a2.238 2.238 0 0 0 -1.533 -0.511 2.238 2.238 0 0 0 -1.533 0.511S13.022 5.611 12 5.611Z" fill="none" stroke="#000000" stroke-linecap="round" stroke-linejoin="round" stroke-width="1"></path><path d="M12 4.078S12.511 0.5 14.556 0.5h3.066c2.045 0 2.556 3.578 2.556 3.578Z" fill="none" stroke="#000000" stroke-linecap="round" stroke-linejoin="round" stroke-width="1"></path><path d="M3.848 16.83a5.84 5.84 0 0 0 -2.581 4.245V23.5" fill="none" stroke="#000000" stroke-linecap="round" stroke-linejoin="round" stroke-width="1"></path><path d="M8.907 16.829a5.843 5.843 0 0 1 2.582 4.246V23.5" fill="none" stroke="#000000" stroke-linecap="round" stroke-linejoin="round" stroke-width="1"></path><path d="M9.956 12.767V14.3a3.578 3.578 0 0 1 -7.156 0v-1.533" fill="none" stroke="#000000" stroke-linecap="round" stroke-linejoin="round" stroke-width="1"></path><path d="m6.378 17.878 0 2.555" fill="none" stroke="#000000" stroke-linecap="round" stroke-linejoin="round" stroke-width="1"></path><path d="M2.8 12.767s0.447 -3.578 2.236 -3.578h2.683c1.789 0 2.237 3.578 2.237 3.578Z" fill="none" stroke="#000000" stroke-linecap="round" stroke-linejoin="round" stroke-width="1"></path><path d="m12 4.078 0 1.533" fill="none" stroke="#000000" stroke-linecap="round" stroke-linejoin="round" stroke-width="1"></path><path d="m20.178 4.078 0 1.533" fill="none" stroke="#000000" stroke-linecap="round" stroke-linejoin="round" stroke-width="1"></path><path d="m3.523 23.5 0 -1.032" fill="none" stroke="#000000" stroke-linecap="round" stroke-linejoin="round" stroke-width="1"></path><path d="m9.232 23.5 0 -1.032" fill="none" stroke="#000000" stroke-linecap="round" stroke-linejoin="round" stroke-width="1"></path><path d="M12.859 9.6a7.27 7.27 0 0 0 -1.37 1.121" fill="none" stroke="#000000" stroke-linecap="round" stroke-linejoin="round" stroke-width="1"></path></svg>