<?xml version="1.0" encoding="UTF-8"?>
<svg id="Layer_1" data-name="Layer 1" xmlns="http://www.w3.org/2000/svg" viewBox="0 0 80 80">
  <path d="m72.5,63.51c-.08-9.15-.03-18.31-.03-27.47,0-3.03-1.82-4.85-4.84-4.85-9.28,0-18.55,0-27.83,0-.47,0-.95.01-1.4.12-2.15.51-3.48,2.28-3.48,4.64,0,9.25,0,18.5,0,27.75,0,3.21,1.83,5.03,5.06,5.03,5.52,0,11.05,0,16.57-.01.54,0,.91.17,1.29.55,1.92,1.95,3.85,3.89,5.81,5.81.46.45,1.03.79,1.56,1.17h.99c1.27-.48,1.78-1.4,1.73-2.75-.06-1.57-.01-3.15-.01-4.71,3.1-.27,4.63-2.43,4.6-5.27Zm-5,3.1c-1.49,0-1.73.23-1.73,1.71,0,1.67,0,3.35,0,5.02v.68c-.06.02-.11.03-.17.05-2.21-2.22-4.44-4.43-6.63-6.67-.55-.57-1.12-.81-1.92-.81-5.71.03-11.42.02-17.13.02-2,0-2.89-.89-2.89-2.9,0-9.17,0-18.35,0-27.52,0-2.03.85-2.88,2.88-2.88,9.2,0,18.4,0,27.6,0,1.98,0,2.82.85,2.82,2.85,0,9.2,0,18.4,0,27.59,0,1.97-.87,2.85-2.85,2.85Z"/>
  <path d="m31.43,39.18c-.14-.01-.28,0-.42,0-2.76,0-5.52.01-8.28-.01-.61,0-1.07.18-1.5.62-2.1,2.13-4.23,4.24-6.35,6.36-.17.17-.36.33-.66.61v-.69c0-1.72,0-3.44,0-5.17,0-1.47-.25-1.72-1.73-1.72-1.99,0-2.84-.85-2.84-2.84,0-9.2,0-18.4,0-27.6,0-1.99.85-2.85,2.83-2.85,9.18,0,18.36,0,27.54,0,2.1,0,2.94.85,2.94,2.98,0,6.2,0,12.41,0,18.61,0,.8.38,1.23,1.04,1.24.65,0,1.06-.44,1.08-1.22.02-.61,0-1.23,0-1.84,0-5.69,0-11.37,0-17.06,0-2.95-1.89-4.83-4.81-4.84-.76,0-1.51,0-2.27,0-8.57,0-17.13,0-25.7,0-1.37,0-2.55.4-3.51,1.38-.97.99-1.27,2.2-1.27,3.56.02,9.22,0,18.45,0,27.67,0,.26,0,.52.02.78.13,1.92,1.47,3.53,3.34,4.01.38.1.77.14,1.2.22,0,1.65,0,3.28,0,4.9,0,.33,0,.67.09.98.48,1.65,2.46,2.11,3.74.84,2.1-2.07,4.18-4.16,6.26-6.26.37-.38.74-.56,1.29-.55,1.75.04,3.49.01,5.24.01.9,0,1.79.01,2.69-.01.63-.02,1.05-.44,1.08-.99.03-.59-.4-1.05-1.05-1.11Z"/>
  <path d="m33.98,29.41c-2.09-5.53-4.18-11.06-6.26-16.58-.25-.66-.72-1.05-1.44-1.05-.72,0-1.19.39-1.44,1.05-2.4,6.29-4.8,12.58-7.19,18.88-.27.72-.04,1.29.56,1.52.61.23,1.12-.04,1.42-.78.45-1.14.86-2.29,1.33-3.42.09-.21.41-.46.63-.46,3.11-.03,6.23-.03,9.34,0,.2,0,.49.22.59.42.24.46.36.97.59,1.44.25.51.72.75,1.23.53.35-.16.6-.55.9-.83-.04-.05-.08-.1-.12-.15-.04-.18-.07-.37-.14-.55Zm-12.03-3.02c1.43-3.76,2.84-7.46,4.33-11.37,1.47,3.88,2.86,7.57,4.3,11.37h-8.63Z"/>
  <path d="m58.74,58.42c-.16.1-.31.22-.47.32-1.73,1.08-3.58,1.29-5.5.65-2.83-.95-4.65-3.86-4.26-6.75.41-3.1,2.85-5.41,5.92-5.58,1.06-.06,2.12,0,3.18-.05.71-.03,1.15-.49,1.13-1.1-.02-.59-.45-.99-1.14-1-.99-.02-1.98,0-2.97-.02-.4,0-.81-.03-1.18-.17-.96-.35-1.46-1.08-1.55-2.09-.08-.92.48-1.82,1.34-2.23.92-.44,1.85-.29,2.68.44.63.55,1.24.59,1.68.11.43-.47.34-1.12-.24-1.68-2.35-2.26-6.28-1.29-7.33,1.81-.58,1.73-.14,3.25,1.07,4.65-.26.16-.47.27-.67.39-3.24,1.99-4.76,5.8-3.78,9.49.94,3.53,4.19,6.1,7.88,6.22,2.01.07,3.82-.49,5.42-1.7.57-.44.67-1.04.29-1.54-.36-.47-.93-.54-1.51-.18Z"/>
</svg>