<svg xmlns="http://www.w3.org/2000/svg" viewBox="0 0 24 24" id="Avatar-Muslim-Man-Outfit-2--Streamline-Ultimate.svg" height="24" width="24"><desc>Avatar Muslim Man Outfit 2 Streamline Icon: https://streamlinehq.com</desc><defs></defs><path d="M8.6 4.682V3.636C8.6 1.545 9.169 0.5 12 0.5s3.4 1.045 3.4 3.136v1.046" fill="none" stroke="#000000" stroke-linecap="round" stroke-linejoin="round" stroke-width="1"></path><path d="m8.602 3.636 6.796 0" fill="none" stroke="#000000" stroke-linecap="round" stroke-linejoin="round" stroke-width="1"></path><path d="M15.4 4.682c0 2.091 0 4.182 -3.4 4.182S8.6 6.773 8.6 4.682" fill="none" stroke="#000000" stroke-linecap="round" stroke-linejoin="round" stroke-width="1"></path><path d="M9.169 7.3A3.148 3.148 0 0 1 12 6.05a3.148 3.148 0 0 1 2.831 1.25" fill="none" stroke="#000000" stroke-linecap="round" stroke-linejoin="round" stroke-width="1"></path><path d="m15.367 23.5 0 -9.409" fill="none" stroke="#000000" stroke-linecap="round" stroke-linejoin="round" stroke-width="1"></path><path d="m8.602 14.091 0 9.409" fill="none" stroke="#000000" stroke-linecap="round" stroke-linejoin="round" stroke-width="1"></path><path d="M8.6 19.318h-0.782A1.536 1.536 0 0 1 6.25 17.75V12c0 -1.568 1.568 -3.136 2.614 -3.136h6.272c1.046 0 2.614 1.568 2.614 3.136v5.75a1.536 1.536 0 0 1 -1.568 1.568h-0.754" fill="none" stroke="#000000" stroke-linecap="round" stroke-linejoin="round" stroke-width="1"></path><path d="M12 8.864 12 12" fill="none" stroke="#000000" stroke-linecap="round" stroke-linejoin="round" stroke-width="1"></path></svg>