<svg xmlns="http://www.w3.org/2000/svg" viewBox="0 0 24 24" id="Avatar-Muslim-Reading-Quraan-4--Streamline-Ultimate.svg" height="24" width="24"><desc>Avatar Muslim Reading Quraan 4 Streamline Icon: https://streamlinehq.com</desc><defs></defs><path d="M9.415 8.312c-1.046 0.433 -2.835 2.473 -2.835 3.88" fill="none" stroke="#000000" stroke-linecap="round" stroke-linejoin="round" stroke-width="1"></path><path d="M14.586 8.314c1.046 0.432 2.833 2.471 2.833 3.878" fill="none" stroke="#000000" stroke-linecap="round" stroke-linejoin="round" stroke-width="1"></path><path d="M15.659 4.159v1.568a3.659 3.659 0 0 1 -7.318 0V4.159" fill="none" stroke="#000000" stroke-linecap="round" stroke-linejoin="round" stroke-width="1"></path><path d="m12 9.386 0 2.104" fill="none" stroke="#000000" stroke-linecap="round" stroke-linejoin="round" stroke-width="1"></path><path d="M8.341 4.159S8.8 0.5 10.628 0.5h2.744c1.83 0 2.287 3.659 2.287 3.659Z" fill="none" stroke="#000000" stroke-linecap="round" stroke-linejoin="round" stroke-width="1"></path><path d="M19.407 21.124A13.874 13.874 0 0 0 12 23.5a13.874 13.874 0 0 0 -7.407 -2.376 0.981 0.981 0 0 1 -0.957 -0.959v-7.2A0.966 0.966 0 0 1 4.648 12 13.858 13.858 0 0 1 12 14.375 13.858 13.858 0 0 1 19.352 12a0.966 0.966 0 0 1 1.012 0.961v7.2a0.981 0.981 0 0 1 -0.957 0.963Z" fill="none" stroke="#000000" stroke-linecap="round" stroke-linejoin="round" stroke-width="1"></path><path d="m12 14.375 0 9.125" fill="none" stroke="#000000" stroke-linecap="round" stroke-linejoin="round" stroke-width="1"></path></svg>