<?xml version="1.0" encoding="UTF-8" standalone="no"?>
<svg
   id="Layer_3"
   data-name="Layer 3"
   viewBox="0 0 24 24"
   version="1.1"
   sodipodi:docname="feather-square.svg"
   inkscape:version="1.3.1 (9b9bdc1480, 2023-11-25, custom)"
   xmlns:inkscape="http://www.inkscape.org/namespaces/inkscape"
   xmlns:sodipodi="http://sodipodi.sourceforge.net/DTD/sodipodi-0.dtd"
   xmlns="http://www.w3.org/2000/svg"
   xmlns:svg="http://www.w3.org/2000/svg">
  <defs
     id="defs4" />
  <sodipodi:namedview
     id="namedview4"
     pagecolor="#ffffff"
     bordercolor="#cccccc"
     borderopacity="1"
     inkscape:showpageshadow="0"
     inkscape:pageopacity="1"
     inkscape:pagecheckerboard="0"
     inkscape:deskcolor="#d1d1d1"
     inkscape:zoom="12.374369"
     inkscape:cx="-9.2934034"
     inkscape:cy="7.3539105"
     inkscape:window-width="1920"
     inkscape:window-height="1115"
     inkscape:window-x="0"
     inkscape:window-y="0"
     inkscape:window-maximized="1"
     inkscape:current-layer="Layer_3" />
  <path
     style="color:#000000;fill:#323232;stroke-width:0.759746;stroke-linecap:round;stroke-linejoin:round;-inkscape-stroke:none"
     d="m 5.7693102,8.0999413 a 0.56980934,0.56980934 0 0 0 0.132588,0.4158683 L 14.936716,19.168053 a 0.56980934,0.56980934 0 0 0 0.804519,0.0661 0.56980934,0.56980934 0 0 0 0.0661,-0.804519 L 6.7725141,7.7773866 A 0.56980934,0.56980934 0 0 0 5.9679949,7.7112898 0.56980934,0.56980934 0 0 0 5.7693102,8.0999413 Z"
     id="path2-3" />
  <path
     style="color:#000000;fill:#323232;stroke-width:0.759746;stroke-linecap:round;stroke-linejoin:round;-inkscape-stroke:none"
     d="M 1.9910545,7.7493325 C 1.8997325,8.8543086 2.227532,9.9939026 2.9974586,10.90357 l 3.9384297,4.653227 c 0.4882566,0.576704 1.1873456,0.935786 1.9414136,0.997738 L 13.235609,16.9126 a 0.56986632,0.56986632 0 0 0 0.614552,-0.52124 l 0.358308,-4.361263 c 0.06177,-0.751888 -0.177589,-1.49795 -0.664906,-2.0735454 L 9.6077279,5.308005 C 8.0660879,3.4865637 5.3213616,3.2599254 3.5016091,4.8033728 2.593173,5.5742727 2.0823761,6.6443555 1.9910545,7.7493325 Z M 3.1194519,7.842038 C 3.186589,7.0298775 3.5647826,6.2442526 4.2386746,5.672384 5.5883713,4.5276233 7.5940689,4.6926824 8.7373509,6.0435055 l 3.9357151,4.6500255 c 0.292333,0.34529 0.436622,0.792752 0.399608,1.243288 l -0.311648,3.793332 -3.7904111,-0.311408 c -0.452899,-0.0372 -0.87145,-0.253072 -1.164233,-0.59889 L 3.8678317,10.168106 C 3.2966855,9.4932976 3.0523149,8.6541976 3.1194519,7.842038 Z"
     id="path3-5" />
  <path
     d="m 20.531821,16.222556 c 1.552499,-1.610898 2.367243,-3.793604 2.25,-6.02777 -0.02427,-0.5954505 -0.501421,-1.0726232 -1.09687,-1.0969199 -2.234184,-0.11722 -4.416897,0.6975529 -6.02779,2.2500799"
     fill="none"
     stroke="#323232"
     stroke-linecap="round"
     stroke-linejoin="round"
     stroke-width="1.5"
     id="path2"
     sodipodi:nodetypes="cccc" />
  <path
     d="m 17.79273,15.719733 c -1.060234,1.244628 -2.635175,1.413682 -3.517805,0.377584 -0.05904,-0.06931 -0.150169,-0.08593 -0.163382,-0.218418 -0.03923,-0.393406 -0.70685,-1.65039 0.485026,-3.911193"
     fill="none"
     stroke="#323232"
     stroke-linecap="round"
     stroke-linejoin="round"
     stroke-width="1.06562"
     id="path3-6-2"
     sodipodi:nodetypes="cssc"
     style="stroke:#ffffff;stroke-opacity:1" />
  <path
     d="m 20.531751,16.222516 c -1.617,1.617 -4.019,1.83663 -5.36513,0.49055 -1.34613,-1.34608 -1.12645,-3.74813 0.49055,-5.36512"
     fill="none"
     stroke="#323232"
     stroke-linecap="round"
     stroke-linejoin="round"
     stroke-width="1.5"
     id="path3"
     sodipodi:nodetypes="csc" />
  <path
     style="fill:#ffffff;fill-opacity:1;stroke:none;stroke-opacity:1"
     d="m 14.003738,16.52595 1.393972,1.342467 -1.545926,1.515067 -1.197042,-1.47288 z"
     id="path5"
     sodipodi:nodetypes="ccccc" />
  <path
     d="m 19.284821,12.594866 -5.5,5.5"
     fill="none"
     stroke="#323232"
     stroke-linecap="round"
     stroke-linejoin="round"
     stroke-width="1.5"
     id="path4"
     sodipodi:nodetypes="cc" />
</svg>
