<svg viewBox="0 0 24 24" xmlns="http://www.w3.org/2000/svg" height="24" width="24"><path d="M8.751 3.75a2.5 2.5 0 1 0 5 0 2.5 2.5 0 1 0 -5 0Z" fill="none" stroke="#000000" stroke-linecap="round" stroke-linejoin="round" stroke-width="1"></path><path d="M18.251 22.75h-7a1.5 1.5 0 0 1 -0.949 -2.662l4.726 -3.859 -1.6 -5.086L9.6 13.8a2.5 2.5 0 0 1 -3.651 -0.92l-1.468 -2.329a1.5 1.5 0 0 1 2.539 -1.6l1.307 2.075L13.4 7.518a1.5 1.5 0 0 1 2.284 0.784L18 15.672a2.5 2.5 0 0 1 -0.791 2.652l-1.747 1.427h2.788a1.5 1.5 0 1 1 0 3Z" fill="none" stroke="#000000" stroke-linecap="round" stroke-linejoin="round" stroke-width="1"></path><path d="m15.751 19.75 -1.5 0" fill="none" stroke="#000000" stroke-linecap="round" stroke-linejoin="round" stroke-width="1"></path></svg>