<svg xmlns="http://www.w3.org/2000/svg" viewBox="0 0 24 24" height="24" width="24"><defs></defs><path d="M12.006 23.378 0.5 19.032l0 -14.064 11.506 4.347 0 14.063z" fill="none" stroke="#000000" stroke-linecap="round" stroke-linejoin="round" stroke-width="1"></path><path d="m11.981 23.378 11.507 -4.346 0 -14.064 -11.507 4.347 0 14.063z" fill="none" stroke="#000000" stroke-linecap="round" stroke-linejoin="round" stroke-width="1"></path><path d="M0.512 4.968 12.019 0.622 23.5 4.968 11.994 9.315 0.512 4.968z" fill="none" stroke="#000000" stroke-linecap="round" stroke-linejoin="round" stroke-width="1"></path><path d="M7.134 2.464 12.011 0.622l4.868 1.842 -4.878 1.843 -4.867 -1.843z" fill="none" stroke="#000000" stroke-linecap="round" stroke-linejoin="round" stroke-width="1"></path><path d="M7.134 2.464 12.011 0.622l4.868 1.842 -4.878 1.843 -4.867 -1.843z" fill="none" stroke="#000000" stroke-linecap="round" stroke-linejoin="round" stroke-width="1"></path><path d="m23.5 7.796 -11.506 4.347L0.512 7.796" fill="none" stroke="#000000" stroke-linecap="round" stroke-linejoin="round" stroke-width="1"></path><path d="m23.5 10.216 -11.506 4.347L0.512 10.216" fill="none" stroke="#000000" stroke-linecap="round" stroke-linejoin="round" stroke-width="1"></path><path d="M3.89 14.418 0.512 13.139" fill="none" stroke="#000000" stroke-linecap="round" stroke-linejoin="round" stroke-width="1"></path><path d="m11.994 17.486 -3.469 -1.313" fill="none" stroke="#000000" stroke-linecap="round" stroke-linejoin="round" stroke-width="1"></path><path d="m20.097 14.418 3.378 -1.279" fill="none" stroke="#000000" stroke-linecap="round" stroke-linejoin="round" stroke-width="1"></path><path d="m11.994 17.486 3.469 -1.313" fill="none" stroke="#000000" stroke-linecap="round" stroke-linejoin="round" stroke-width="1"></path><path d="M5.503 15.222a0.5 0.5 0 1 0 1 0 0.5 0.5 0 1 0 -1 0" fill="none" stroke="#000000" stroke-linecap="round" stroke-linejoin="round" stroke-width="1"></path><path d="M17.496 15.222a0.5 0.5 0 1 0 1 0 0.5 0.5 0 1 0 -1 0" fill="none" stroke="#000000" stroke-linecap="round" stroke-linejoin="round" stroke-width="1"></path></svg>