<!-- Generated by IcoMoon.io -->
<svg version="1.1" xmlns="http://www.w3.org/2000/svg" width="32" height="32" viewBox="0 0 32 32">
<path d="M25.813 18.307c0.987 0 1.92-0.387 2.613-1.080s1.080-1.627 1.080-2.613-0.387-1.92-1.080-2.613c-1.4-1.4-3.84-1.4-5.227 0-0.693 0.693-1.080 1.627-1.080 2.613s0.387 1.92 1.080 2.613 1.627 1.080 2.613 1.080zM24.613 13.413c0.333-0.333 0.76-0.493 1.2-0.493s0.867 0.16 1.2 0.493c0.667 0.667 0.667 1.733 0 2.4-0.64 0.64-1.76 0.64-2.4 0-0.667-0.667-0.667-1.733 0-2.4z"></path>
<path d="M16 15.973c1.373 0 2.667-0.533 3.64-1.507s1.507-2.267 1.507-3.64-0.533-2.667-1.507-3.64c-1.947-1.947-5.347-1.947-7.293 0-2.013 2.013-2.013 5.28 0 7.293 0.973 0.973 2.267 1.507 3.64 1.507zM13.773 8.587c0.6-0.6 1.387-0.92 2.227-0.92s1.64 0.333 2.227 0.92c0.6 0.6 0.92 1.387 0.92 2.227s-0.333 1.64-0.92 2.227c-1.187 1.187-3.267 1.187-4.453 0-1.227-1.227-1.227-3.227 0-4.453z"></path>
<path d="M6.187 18.307c0.987 0 1.92-0.387 2.613-1.080s1.080-1.627 1.080-2.613-0.387-1.92-1.080-2.613c-1.4-1.4-3.827-1.4-5.227 0-1.44 1.44-1.44 3.787 0 5.227 0.693 0.693 1.627 1.080 2.613 1.080zM4.987 13.413c0.333-0.333 0.76-0.493 1.2-0.493s0.867 0.16 1.2 0.493c0.667 0.667 0.667 1.733 0 2.4-0.64 0.64-1.76 0.64-2.4 0-0.667-0.667-0.667-1.733 0-2.4z"></path>
<path d="M27.333 19.533h-1.067c-0.547 0-1 0.453-1 1s0.453 1 1 1h1.067c1.28 0 2.333 1.053 2.333 2.333v1.467c0 0.547 0.453 1 1 1s1-0.453 1-1v-1.467c0-2.387-1.947-4.333-4.333-4.333z"></path>
<path d="M5.733 19.533h-1.067c-2.387 0-4.333 1.947-4.333 4.333v1.467c0 0.547 0.453 1 1 1s1-0.453 1-1v-1.467c0-1.28 1.053-2.333 2.333-2.333h1.067c0.547 0 1-0.453 1-1s-0.453-1-1-1z"></path>
<path d="M18.453 17.533h-4.907c-3.12 0-5.667 2.547-5.667 5.667v2.133c0 0.547 0.453 1 1 1s1-0.453 1-1v-2.133c0-2.027 1.64-3.667 3.667-3.667h4.907c2.027 0 3.667 1.64 3.667 3.667v2.133c0 0.547 0.453 1 1 1s1-0.453 1-1v-2.133c0-3.12-2.547-5.667-5.667-5.667z"></path>
</svg>
