<?xml version="1.0" encoding="UTF-8" standalone="no"?>
<svg
   fill="none"
   viewBox="0 0 24 24"
   id="Avatar-Islamic-Women-Hijab-1--Streamline-Ultimate.svg"
   height="24"
   width="24"
   version="1.1"
   sodipodi:docname="women1.svg"
   inkscape:version="1.1.2 (0a00cf5339, 2022-02-04)"
   xmlns:inkscape="http://www.inkscape.org/namespaces/inkscape"
   xmlns:sodipodi="http://sodipodi.sourceforge.net/DTD/sodipodi-0.dtd"
   xmlns="http://www.w3.org/2000/svg"
   xmlns:svg="http://www.w3.org/2000/svg">
  <defs
     id="defs25" />
  <sodipodi:namedview
     id="namedview23"
     pagecolor="#ffffff"
     bordercolor="#000000"
     borderopacity="0.25"
     inkscape:pageshadow="2"
     inkscape:pageopacity="0.0"
     inkscape:pagecheckerboard="0"
     showgrid="false"
     inkscape:zoom="36.291667"
     inkscape:cx="12"
     inkscape:cy="12"
     inkscape:window-width="1920"
     inkscape:window-height="1000"
     inkscape:window-x="3840"
     inkscape:window-y="91"
     inkscape:window-maximized="1"
     inkscape:current-layer="Avatar-Islamic-Women-Hijab-1--Streamline-Ultimate.svg" />
  <desc
     id="desc2">Avatar Islamic Women Hijab 1 Streamline Icon: https://streamlinehq.com</desc>
  <path
     stroke="#000000"
     stroke-linecap="round"
     stroke-linejoin="round"
     d="M5.64002 16.7c-1.1545 0.7271 -2.11126 1.7285 -2.78508 2.9149 -0.67381 1.1864 -1.04377 2.521 -1.07692 3.8851"
     stroke-width="1"
     id="path4" />
  <path
     stroke="#000000"
     stroke-linecap="round"
     stroke-linejoin="round"
     d="M22.222 23.5001c-0.0033 -1.407 -0.3961 -2.7856 -1.135 -3.983"
     stroke-width="1"
     id="path6" />
  <path
     stroke="#000000"
     stroke-linecap="round"
     stroke-linejoin="round"
     d="M18.62 16.879c0.9916 0.7175 1.834 1.6214 2.48 2.661 -1.7065 0.8914 -3.598 1.3709 -5.523 1.4 -8.178 0 -11.245 -5.111 -11.245 -7.666V8.167c0 -2.03342 0.80777 -3.98355 2.24561 -5.42139C8.01545 1.30777 9.96559 0.5 11.999 0.5c2.0334 0 3.9835 0.80777 5.4214 2.24561C18.8582 4.18345 19.666 6.13358 19.666 8.167v5.111c-0.0194 1.2724 -0.3807 2.5162 -1.046 3.601Z"
     stroke-width="1"
     id="path8" />
  <path
     stroke="#000000"
     stroke-linecap="round"
     stroke-linejoin="round"
     d="M12 14.882c2.792 0 5.055 -2.222 5.055 -5.65702v-1.645s-3.676 -2.246 -5.055 -2.246c-1.379 0 -5.05499 2.246 -5.05499 2.246v1.645C6.94501 12.66 9.20801 14.882 12 14.882Z"
     stroke-width="1"
     id="path10" />
</svg>
