<?xml version="1.0" encoding="UTF-8" standalone="no"?>
<svg
   viewBox="0 0 24 24"
   id="Religion-Woman-Muslim--Streamline-Ultimate.svg"
   height="24"
   width="24"
   version="1.1"
   sodipodi:docname="women2.svg"
   inkscape:version="1.1.2 (0a00cf5339, 2022-02-04)"
   xmlns:inkscape="http://www.inkscape.org/namespaces/inkscape"
   xmlns:sodipodi="http://sodipodi.sourceforge.net/DTD/sodipodi-0.dtd"
   xmlns="http://www.w3.org/2000/svg"
   xmlns:svg="http://www.w3.org/2000/svg">
  <defs
     id="defs21" />
  <sodipodi:namedview
     id="namedview19"
     pagecolor="#ffffff"
     bordercolor="#000000"
     borderopacity="0.25"
     inkscape:pageshadow="2"
     inkscape:pageopacity="0.0"
     inkscape:pagecheckerboard="0"
     showgrid="false"
     inkscape:zoom="9.0729167"
     inkscape:cx="4.2433984"
     inkscape:cy="13.942595"
     inkscape:window-width="1920"
     inkscape:window-height="1000"
     inkscape:window-x="3840"
     inkscape:window-y="91"
     inkscape:window-maximized="1"
     inkscape:current-layer="Religion-Woman-Muslim--Streamline-Ultimate.svg" />
  <desc
     id="desc2">Religion Woman Muslim Streamline Icon: https://streamlinehq.com</desc>
  <path
     d="M16.5 9c0 -2.485 -2.015 -3.5 -4.5 -3.5S7.5 6.515 7.5 9v2.5a4.5 4.5 0 0 0 9 0Z"
     fill="none"
     stroke="#000000"
     stroke-linecap="round"
     stroke-linejoin="round"
     stroke-width="1"
     id="path10" />
  <path
     d="M16.471 17C18.016 15.581 19 12.982 19 8.5c0 -3.866 -3.134 -8 -7 -8s-7 4.134 -7 8c0 4.482 0.984 7.081 2.529 8.5A2.487 2.487 0 0 0 6 19c0 1.657 2.686 3 6 3s6 -1.343 6 -3a2.487 2.487 0 0 0 -1.529 -2Z"
     fill="none"
     stroke="#000000"
     stroke-linecap="round"
     stroke-linejoin="round"
     stroke-width="1"
     id="path12" />
  <path
     d="M23.5 23.5v-1a4 4 0 0 0 -2.6 -3.745l-3.688 -1.238"
     fill="none"
     stroke="#000000"
     stroke-linecap="round"
     stroke-linejoin="round"
     stroke-width="1"
     id="path14" />
  <path
     d="M6.784 17.517 3.1 18.755A4 4 0 0 0 0.5 22.5v1"
     fill="none"
     stroke="#000000"
     stroke-linecap="round"
     stroke-linejoin="round"
     stroke-width="1"
     id="path16" />
</svg>
