<?xml version="1.0" encoding="UTF-8" standalone="no"?>
<svg
   width="670.63672pt"
   height="830.81189pt"
   viewBox="0 0 670.63672 830.81188"
   version="1.2"
   id="svg7"
   sodipodi:docname="5.svg"
   inkscape:version="1.1.2 (0a00cf5339, 2022-02-04)"
   xmlns:inkscape="http://www.inkscape.org/namespaces/inkscape"
   xmlns:sodipodi="http://sodipodi.sourceforge.net/DTD/sodipodi-0.dtd"
   xmlns="http://www.w3.org/2000/svg"
   xmlns:svg="http://www.w3.org/2000/svg">
  <defs
     id="defs11">
    <clipPath
       id="clip1">
      <path
         d="m 306.65234,359.66406 h 136.31641 v 136.3125 H 306.65234 Z m 0,0"
         id="path828" />
    </clipPath>
    <clipPath
       id="clip2">
      <path
         d="m 374,359.66406 h 68.96875 v 136.3125 H 374 Z m 0,0"
         id="path831" />
    </clipPath>
    <clipPath
       id="clip3">
      <path
         d="m 374,411 h 68.96875 v 24 H 374 Z m 0,0"
         id="path834" />
    </clipPath>
    <clipPath
       id="clip4">
      <path
         d="M 306.65234,411 H 375 v 24 h -68.34766 z m 0,0"
         id="path837" />
    </clipPath>
    <clipPath
       id="clip5">
      <path
         d="M 306.65234,388 H 375 v 47 h -68.34766 z m 0,0"
         id="path840" />
    </clipPath>
    <clipPath
       id="clip6">
      <path
         d="m 374,388 h 68.96875 v 28 H 374 Z m 0,0"
         id="path843" />
    </clipPath>
  </defs>
  <sodipodi:namedview
     id="namedview9"
     pagecolor="#ffffff"
     bordercolor="#000000"
     borderopacity="0.25"
     inkscape:pageshadow="2"
     inkscape:pageopacity="0.0"
     inkscape:pagecheckerboard="0"
     inkscape:document-units="pt"
     showgrid="false"
     fit-margin-top="0"
     fit-margin-left="0"
     fit-margin-right="0"
     fit-margin-bottom="0"
     inkscape:zoom="0.21775"
     inkscape:cx="-52.812859"
     inkscape:cy="560.27554"
     inkscape:window-width="1920"
     inkscape:window-height="1043"
     inkscape:window-x="1920"
     inkscape:window-y="0"
     inkscape:window-maximized="1"
     inkscape:current-layer="svg7" />
  <g
     id="surface1"
     transform="translate(-39.414062,120.7611)">
    <path
       style="fill:#000000;fill-opacity:1;fill-rule:nonzero;stroke:none"
       d="m 374.73047,710.05078 c -89.52344,0 -173.82422,-34.84766 -237.08203,-98.23828 C 74.257812,548.55469 39.414062,464.25781 39.414062,374.73047 c 0,-89.52344 34.84375,-173.82422 98.234378,-237.08203 63.25781,-63.390628 147.55859,-98.234378 237.08203,-98.234378 89.52734,0 173.82422,34.84375 237.08203,98.234378 63.39062,63.39453 98.23828,147.55859 98.23828,237.08203 0,89.52734 -34.84766,173.82422 -98.23828,237.08203 -63.25781,63.39062 -147.55469,98.23828 -237.08203,98.23828 z m 0,-650.535155 c -84.16406,0 -163.3711,32.835937 -222.875,92.339845 -59.503908,59.5039 -92.339845,138.71094 -92.339845,222.875 0,84.16406 32.835937,163.37109 92.339845,222.875 59.5039,59.50781 138.71094,92.33984 222.875,92.33984 84.16406,0 163.37109,-32.83203 222.875,-92.33984 59.50781,-59.50391 92.33984,-138.71094 92.33984,-222.875 0,-84.16406 -32.83203,-163.3711 -92.33984,-222.875 C 538.10156,92.351562 458.89453,59.515625 374.73047,59.515625 Z m 0,0"
       id="path2" />
    <path
       style="fill:#000000;fill-opacity:1;fill-rule:nonzero;stroke:none"
       d="M 401.17969,50.902344 374.98828,96.265625 348.79687,50.902344 Z m 0,0"
       id="path4" />
  </g>
  <g
     id="surface1-3"
     transform="translate(-39.246176,-359.66406)">
    <g
       clip-path="url(#clip1)"
       clip-rule="nonzero"
       id="g850">
      <path
         style="fill:#000000;fill-opacity:1;fill-rule:nonzero;stroke:none"
         d="m 374.80859,359.66406 -68.15625,18.9336 v 109.80859 l 68.15625,7.57031 68.16016,-7.57031 V 378.59766 Z m 0,0"
         id="path848" />
    </g>
    <g
       clip-path="url(#clip2)"
       clip-rule="nonzero"
       id="g854">
      <path
         style="fill:#282e30;fill-opacity:1;fill-rule:nonzero;stroke:none"
         d="m 374.80859,495.97656 68.16016,-7.57031 V 378.59766 l -68.16016,-18.9336 z m 0,0"
         id="path852" />
    </g>
    <g
       clip-path="url(#clip3)"
       clip-rule="nonzero"
       id="g858">
      <path
         style="fill:#ffd982;fill-opacity:1;fill-rule:nonzero;stroke:none"
         d="m 391.67578,414.59375 v 12.90234 l 16.01172,2.31641 v -12.51563 z m 26.50391,4.47266 v 12.26562 l 12.49218,1.80859 v -11.96875 z m -43.3711,-7.3125 v 13.30078 l 6.375,0.92187 v -13.14844 z m 68.16016,11.49218 -2.04297,-0.34375 V 434.625 l 2.04297,0.29687 z m 0,0"
         id="path856" />
    </g>
    <g
       clip-path="url(#clip4)"
       clip-rule="nonzero"
       id="g862">
      <path
         style="fill:#ffab30;fill-opacity:1;fill-rule:nonzero;stroke:none"
         d="m 306.65234,423.24609 v 11.67578 l 2.04297,-0.29687 v -11.72266 z m 61.78516,-10.41797 v 13.14844 l 6.37109,-0.92187 v -13.30078 z m -49.48828,8.34375 v 11.96875 l 12.49219,-1.80859 v -12.26562 z m 22.98437,-3.875 v 12.51563 l 16.01172,-2.31641 v -12.90234 z m 0,0"
         id="path860" />
    </g>
    <path
       style="fill:#ffd982;fill-opacity:1;fill-rule:nonzero;stroke:none"
       d="m 387.64453,416.95703 v -0.15625 c 0,-1.59375 -0.54297,-2.89062 -1.21484,-2.89062 -0.66797,0 -1.21094,1.29687 -1.21094,2.89062 v 0.15625 c -0.78516,0.82422 -1.34375,2.35156 -1.34375,4.17969 0,1.9414 0.61328,3.58984 1.48828,4.35937 0.24219,0.73828 0.61719,1.25 1.06641,1.25 0.45312,0 0.82812,-0.51172 1.07031,-1.25 0.875,-0.76953 1.48828,-2.41797 1.48828,-4.35937 -0.004,-1.82813 -0.55859,-3.35547 -1.34375,-4.17969 z m 26.5,4.05078 v -0.16015 c 0,-1.59375 -0.54297,-2.89063 -1.21094,-2.89063 -0.67187,0 -1.21093,1.29688 -1.21093,2.89063 v 0.16015 c -0.78907,0.82031 -1.34766,2.35156 -1.34766,4.17578 0,1.94141 0.61328,3.59375 1.48828,4.35938 0.24219,0.73828 0.61719,1.25 1.07031,1.25 0.44922,0 0.82422,-0.51172 1.06641,-1.25 0.875,-0.76563 1.48828,-2.41797 1.48828,-4.35938 0,-1.82031 -0.55469,-3.35156 -1.34375,-4.17578 z m 22.78125,3.89844 v -0.14844 c 0,-1.48828 -0.50391,-2.69531 -1.12891,-2.69531 -0.625,0 -1.13281,1.20703 -1.13281,2.69531 v 0.14844 c -0.73437,0.76953 -1.2539,2.19531 -1.2539,3.89844 0,1.8164 0.57031,3.35547 1.39062,4.07422 0.22266,0.6914 0.57422,1.16796 0.99609,1.16796 0.41797,0 0.76563,-0.47656 0.9961,-1.16796 0.8125,-0.71485 1.38672,-2.25782 1.38672,-4.07422 0,-1.70313 -0.51563,-3.12891 -1.25391,-3.89844 z m 0,0"
       id="path864" />
    <g
       clip-path="url(#clip5)"
       clip-rule="nonzero"
       id="g868">
      <path
         style="fill:#ffab30;fill-opacity:1;fill-rule:nonzero;stroke:none"
         d="m 361.97656,416.95703 v -0.15625 c 0,-1.59375 0.54297,-2.89062 1.21485,-2.89062 0.66796,0 1.21093,1.29687 1.21093,2.89062 v 0.15625 c 0.78516,0.82422 1.34375,2.35156 1.34375,4.17969 0,1.9414 -0.61328,3.58984 -1.48828,4.35937 -0.24219,0.73828 -0.61719,1.25 -1.0664,1.25 -0.45313,0 -0.82813,-0.51172 -1.07032,-1.25 -0.875,-0.76953 -1.48828,-2.41797 -1.48828,-4.35937 0.004,-1.82813 0.5586,-3.35547 1.34375,-4.17969 z m -26.5,4.05078 v -0.16015 c 0,-1.59375 0.54297,-2.89063 1.21094,-2.89063 0.67187,0 1.21094,1.29688 1.21094,2.89063 v 0.16015 c 0.78906,0.82031 1.34765,2.35156 1.34765,4.17578 0,1.94141 -0.61718,3.59375 -1.48828,4.35938 -0.24219,0.73828 -0.61719,1.25 -1.07031,1.25 -0.44922,0 -0.82422,-0.51172 -1.06641,-1.25 -0.875,-0.76563 -1.48828,-2.41797 -1.48828,-4.35938 0,-1.82031 0.55469,-3.35156 1.34375,-4.17578 z m -22.78125,3.89844 v -0.14844 c 0,-1.48828 0.50391,-2.69531 1.12891,-2.69531 0.625,0 1.13281,1.20703 1.13281,2.69531 v 0.14844 c 0.73438,0.76953 1.25391,2.19531 1.25391,3.89844 0,1.8164 -0.57032,3.35547 -1.39063,4.07422 -0.22265,0.6914 -0.57422,1.16796 -0.99609,1.16796 -0.41797,0 -0.76953,-0.48046 -1,-1.16796 -0.8125,-0.71485 -1.38672,-2.25782 -1.38672,-4.07422 0.004,-1.70313 0.51953,-3.12891 1.25781,-3.89844 z m -6.04297,-23.03516 v 13.25 l 68.15625,-12.375 v -14.25 z m 0,0"
         id="path866" />
    </g>
    <g
       clip-path="url(#clip6)"
       clip-rule="nonzero"
       id="g872">
      <path
         style="fill:#ffd982;fill-opacity:1;fill-rule:nonzero;stroke:none"
         d="m 374.80859,388.49609 v 14.25 l 68.16016,12.375 v -13.25 z m 0,0"
         id="path870" />
    </g>
  </g>
</svg>
