<?xml version="1.0" encoding="UTF-8" standalone="no"?>
<svg
   width="670.63672pt"
   height="670.63672pt"
   viewBox="0 0 670.63672 670.63671"
   version="1.2"
   id="svg7"
   sodipodi:docname="ring-external.svg"
   inkscape:version="1.1.2 (0a00cf5339, 2022-02-04)"
   xmlns:inkscape="http://www.inkscape.org/namespaces/inkscape"
   xmlns:sodipodi="http://sodipodi.sourceforge.net/DTD/sodipodi-0.dtd"
   xmlns="http://www.w3.org/2000/svg"
   xmlns:svg="http://www.w3.org/2000/svg">
  <defs
     id="defs11" />
  <sodipodi:namedview
     id="namedview9"
     pagecolor="#ffffff"
     bordercolor="#000000"
     borderopacity="0.25"
     inkscape:pageshadow="2"
     inkscape:pageopacity="0.0"
     inkscape:pagecheckerboard="0"
     inkscape:document-units="pt"
     showgrid="false"
     fit-margin-top="0"
     fit-margin-left="0"
     fit-margin-right="0"
     fit-margin-bottom="0"
     inkscape:zoom="0.21775"
     inkscape:cx="-236.50976"
     inkscape:cy="1297.3594"
     inkscape:window-width="1920"
     inkscape:window-height="1000"
     inkscape:window-x="3840"
     inkscape:window-y="0"
     inkscape:window-maximized="1"
     inkscape:current-layer="svg7" />
  <g
     id="surface1"
     transform="translate(-39.414062,-39.414062)">
    <path
       style="fill:#000000;fill-opacity:1;fill-rule:nonzero;stroke:none"
       d="m 374.73047,710.05078 c -89.52344,0 -173.82422,-34.84766 -237.08203,-98.23828 C 74.257812,548.55469 39.414062,464.25781 39.414062,374.73047 c 0,-89.52344 34.84375,-173.82422 98.234378,-237.08203 63.25781,-63.390628 147.55859,-98.234378 237.08203,-98.234378 89.52734,0 173.82422,34.84375 237.08203,98.234378 63.39062,63.39453 98.23828,147.55859 98.23828,237.08203 0,89.52734 -34.84766,173.82422 -98.23828,237.08203 -63.25781,63.39062 -147.55469,98.23828 -237.08203,98.23828 z m 0,-650.535155 c -84.16406,0 -163.3711,32.835937 -222.875,92.339845 -59.503908,59.5039 -92.339845,138.71094 -92.339845,222.875 0,84.16406 32.835937,163.37109 92.339845,222.875 59.5039,59.50781 138.71094,92.33984 222.875,92.33984 84.16406,0 163.37109,-32.83203 222.875,-92.33984 59.50781,-59.50391 92.33984,-138.71094 92.33984,-222.875 0,-84.16406 -32.83203,-163.3711 -92.33984,-222.875 C 538.10156,92.351562 458.89453,59.515625 374.73047,59.515625 Z m 0,0"
       id="path2" />
    <path
       style="fill:#000000;fill-opacity:1;fill-rule:nonzero;stroke:none"
       d="M 401.17969,50.902344 374.98828,96.265625 348.79687,50.902344 Z m 0,0"
       id="path4" />
  </g>
</svg>
